<?xml version="1.0" encoding="iso-8859-1"?>
<!-- Generator: Adobe Illustrator 19.0.0, SVG Export Plug-In . SVG Version: 6.00 Build 0)  -->
<svg version="1.1" id="Layer_1" xmlns="http://www.w3.org/2000/svg" xmlns:xlink="http://www.w3.org/1999/xlink" x="0px" y="0px"
	 viewBox="0 0 512 512" style="enable-background:new 0 0 512 512;" xml:space="preserve">
<circle style="fill:#366695;" cx="256" cy="256" r="256"/>
<path style="fill:#263A7A;" d="M119.229,319.402l185.792,187.89c103.431-20.061,184.641-102.369,203.048-206.379L393.781,186.206
	L119.229,319.402z"/>
<g>
	<path style="fill:#FFEDB5;" d="M378.575,238.118c0,71.733-54.879,166.993-122.575,166.993S133.425,309.85,133.425,238.118
		S188.304,108.234,256,108.234S378.575,166.384,378.575,238.118z"/>
	<path style="fill:#FFEDB5;" d="M133.425,238.118c0,71.53,54.568,166.443,122.001,166.981v-296.85
		C187.995,108.578,133.425,166.59,133.425,238.118z"/>
</g>
<path style="fill:#FDE085;" d="M256,108.234c-0.193,0-0.381,0.014-0.574,0.016v296.85c0.191,0.002,0.383,0.012,0.574,0.012
	c67.696,0,122.575-95.261,122.575-166.993S323.696,108.234,256,108.234z"/>
<path style="fill:#333333;" d="M256,107.234c-63.116,0-115.25,49.671-123.573,114.128h247.146
	C371.25,156.905,319.116,107.234,256,107.234z"/>
<path style="fill:#232323;" d="M256,107.232V221.36h123.573C371.25,156.905,319.116,107.234,256,107.232z"/>
<path style="fill:#FF6262;" d="M350.37,167.788h-81.363V106.98c0-2.936-2.379-5.315-5.315-5.315h-15.384
	c-2.936,0-5.315,2.381-5.315,5.315v60.807H161.63c-5.951,0-10.774,4.823-10.774,10.774v147.551c0,5.951,4.823,10.774,10.774,10.774
	h188.74c5.951,0,10.774-4.824,10.774-10.774V178.562C361.144,172.611,356.321,167.788,350.37,167.788z"/>
<path style="fill:#FF0F27;" d="M350.37,167.788h-81.363V106.98c0-2.936-2.379-5.315-5.315-5.315h-8.266v235.222h94.944
	c5.951,0,10.774-4.824,10.774-10.774V178.562C361.144,172.611,356.321,167.788,350.37,167.788z"/>
<path style="fill:#FF6262;" d="M248.308,101.666c-2.936,0-5.315,2.381-5.315,5.315v60.807H161.63
	c-5.951,0-10.774,4.823-10.774,10.774v147.551c0,5.951,4.823,10.774,10.774,10.774h93.796V101.666H248.308z"/>
<g>
	<path style="fill:#71E2EF;" d="M380.983,323.879H131.017c-9.997,0-18.101-8.104-18.101-18.101V198.896
		c0-9.997,8.104-18.101,18.101-18.101h249.966c9.997,0,18.101,8.104,18.101,18.101v106.882
		C399.084,315.775,390.98,323.879,380.983,323.879z"/>
	<path style="fill:#71E2EF;" d="M131.017,180.795c-9.997,0-18.101,8.104-18.101,18.101v106.882c0,9.997,8.104,18.101,18.101,18.101
		h124.409V180.795H131.017z"/>
</g>
<path style="fill:#38C6D9;" d="M380.983,180.795H255.426v143.084h125.557c9.997,0,18.101-8.104,18.101-18.101V198.896
	C399.084,188.899,390.98,180.795,380.983,180.795z"/>
<g>
	<polygon style="fill:#BCE2E2;" points="256,318.459 291.771,318.459 363.313,186.215 327.542,186.215 	"/>
	<polygon style="fill:#BCE2E2;" points="206.679,318.459 242.45,318.459 313.992,186.215 278.221,186.215 	"/>
</g>
<g>
</g>
<g>
</g>
<g>
</g>
<g>
</g>
<g>
</g>
<g>
</g>
<g>
</g>
<g>
</g>
<g>
</g>
<g>
</g>
<g>
</g>
<g>
</g>
<g>
</g>
<g>
</g>
<g>
</g>
</svg>
