<?xml version="1.0" encoding="iso-8859-1"?>
<!-- Generator: Adobe Illustrator 19.0.0, SVG Export Plug-In . SVG Version: 6.00 Build 0)  -->
<svg version="1.1" id="Layer_1" xmlns="http://www.w3.org/2000/svg" xmlns:xlink="http://www.w3.org/1999/xlink" x="0px" y="0px"
	 viewBox="0 0 512 512" style="enable-background:new 0 0 512 512;" xml:space="preserve">
<circle style="fill:#FFC61B;" cx="256" cy="256" r="256"/>
<path style="fill:#D3AC09;" d="M512,256c0-3.043-0.072-6.068-0.178-9.085l-97.797-97.797l-64.86-6.682l-93.739-93.739
	l-10.343,109.615L105.567,371.41l139.259,140.333C248.532,511.902,252.254,512,256,512C397.386,512,512,397.386,512,256z"/>
<rect x="199.111" y="369.778" style="fill:#121244;" width="113.778" height="28.444"/>
<rect x="255.431" y="369.778" style="fill:#07072B;" width="57.458" height="28.444"/>
<rect x="181.872" y="391.327" style="fill:#273B7A;" width="148.256" height="25.859"/>
<rect x="255.431" y="391.327" style="fill:#121149;" width="74.697" height="25.859"/>
<path style="fill:#38C6D9;" d="M389.675,142.222H255.426H122.325c-12.576,0-22.769,10.193-22.769,22.769v182.017
	c0,12.576,10.195,22.769,22.769,22.769h133.101h134.249c12.576,0,22.769-10.195,22.769-22.769V164.992
	C412.444,152.417,402.249,142.222,389.675,142.222z"/>
<path style="fill:#6D9EC6;" d="M389.675,142.222H255.428v227.556h134.247c12.576,0,22.769-10.195,22.769-22.769V164.992
	C412.444,152.417,402.249,142.222,389.675,142.222z"/>
<path style="fill:#273B7A;" d="M389.675,376.673h-267.35c-16.356,0-29.665-13.309-29.665-29.665V164.992
	c0-16.356,13.309-29.665,29.665-29.665h267.35c16.356,0,29.665,13.309,29.665,29.665v182.017
	C419.34,363.367,406.031,376.673,389.675,376.673z M122.325,149.118c-8.752,0-15.874,7.121-15.874,15.874v182.017
	c0,8.752,7.121,15.874,15.874,15.874h267.35c8.752,0,15.874-7.121,15.874-15.874V164.992c0-8.752-7.121-15.874-15.874-15.874
	H122.325z"/>
<path style="fill:#121149;" d="M389.675,135.327H255.426v13.791h134.249c8.752,0,15.874,7.121,15.874,15.874v182.017
	c0,8.752-7.121,15.874-15.874,15.874H255.426v13.791h134.249c16.356,0,29.665-13.309,29.665-29.665V164.992
	C419.34,148.635,406.031,135.327,389.675,135.327z"/>
<path style="fill:#FFC61B;" d="M219.226,205.402L197.329,227.3c-1.203,1.203-1.879,2.836-1.879,4.537v42.368
	c0,5.718,6.913,8.582,10.955,4.537l17.661-17.661c1.062-1.062,1.717-2.462,1.853-3.956l4.237-46.604
	C230.7,204.543,223.47,201.157,219.226,205.402z"/>
<path style="fill:#D48B07;" d="M292.345,205.402l21.897,21.899c1.203,1.203,1.879,2.836,1.879,4.537v42.368
	c0,5.718-6.913,8.582-10.955,4.537l-17.661-17.661c-1.062-1.062-1.717-2.462-1.853-3.956l-4.237-46.604
	C280.871,204.543,288.099,201.157,292.345,205.402z"/>
<path style="fill:#FFEDB5;" d="M397.886,360.567c0.197-1.646,0.336-3.312,0.336-5.011c0-23.564-19.103-42.667-42.667-42.667
	c-0.81,0-1.614,0.028-2.413,0.072c-5.837-16.606-21.649-28.517-40.253-28.517c-10.93,0-20.895,4.115-28.444,10.873V256h-56.889
	v39.317c-7.549-6.758-17.515-10.873-28.444-10.873c-18.603,0-34.416,11.909-40.253,28.517c-0.8-0.045-1.603-0.072-2.413-0.072
	c-23.564,0-42.667,19.103-42.667,42.667c0,1.7,0.14,3.365,0.336,5.013c2.4,1.458,5.203,2.313,8.209,2.313h267.35
	C392.683,362.882,395.488,362.027,397.886,360.567z"/>
<path style="fill:#FEE187;" d="M355.556,312.889c-0.81,0-1.614,0.028-2.413,0.072c-5.837-16.606-21.649-28.517-40.253-28.517
	c-10.93,0-20.895,4.115-28.444,10.873V256h-29.019v106.882h134.249c3.008,0,5.813-0.857,8.211-2.315
	c0.197-1.646,0.336-3.312,0.336-5.011C398.222,331.991,379.121,312.889,355.556,312.889z"/>
<path style="fill:#273B7A;" d="M234.382,273.56h43.175c8.132,0,14.726-6.592,14.726-14.726V118.829
	c0-8.132-6.592-14.726-14.726-14.726h-43.175c-8.132,0-14.726,6.592-14.726,14.726v140.007
	C219.657,266.967,226.249,273.56,234.382,273.56z"/>
<path style="fill:#121149;" d="M277.556,104.103h-22.13V273.56h22.13c8.132,0,14.726-6.592,14.726-14.726V118.829
	C292.281,110.697,285.689,104.103,277.556,104.103z"/>
<path style="fill:#366695;" d="M215.592,112.376l36.038-61.264c1.946-3.31,6.732-3.31,8.678,0l36.038,61.264
	c1.974,3.356-0.445,7.587-4.339,7.587h-72.076C216.036,119.963,213.618,115.733,215.592,112.376z"/>
<path style="fill:#263A7A;" d="M296.346,112.376l-36.038-61.262c-1.079-1.834-3.025-2.613-4.882-2.415v71.266h36.58
	C295.902,119.963,298.32,115.733,296.346,112.376z"/>
<circle style="fill:#FFC61B;" cx="255.966" cy="152.514" r="21.273"/>
<path style="fill:#D48B07;" d="M255.969,131.246c-0.183,0-0.36,0.022-0.541,0.028v42.493c0.181,0.005,0.359,0.028,0.541,0.028
	c11.748,0,21.273-9.525,21.273-21.273C277.242,140.772,267.717,131.246,255.969,131.246z"/>
<g>
</g>
<g>
</g>
<g>
</g>
<g>
</g>
<g>
</g>
<g>
</g>
<g>
</g>
<g>
</g>
<g>
</g>
<g>
</g>
<g>
</g>
<g>
</g>
<g>
</g>
<g>
</g>
<g>
</g>
</svg>
