<?xml version="1.0" encoding="iso-8859-1"?>
<!-- Generator: Adobe Illustrator 19.0.0, SVG Export Plug-In . SVG Version: 6.00 Build 0)  -->
<svg version="1.1" id="Layer_1" xmlns="http://www.w3.org/2000/svg" xmlns:xlink="http://www.w3.org/1999/xlink" x="0px" y="0px"
	 viewBox="0 0 512 512" style="enable-background:new 0 0 512 512;" xml:space="preserve">
<circle style="fill:#71E2EF;" cx="256" cy="256" r="256"/>
<path style="fill:#38C6D9;" d="M512,256c0-19.699-2.231-38.876-6.442-57.297l-84.925-84.925L91.367,380.43l129.105,129.105
	C232.086,511.148,243.943,512,256,512C397.384,512,512,397.384,512,256z"/>
<rect x="185.441" y="154.807" style="fill:#366695;" width="141.119" height="184.596"/>
<polygon style="fill:#273B7A;" points="91.367,380.43 185.442,339.406 185.442,154.802 91.367,113.778 "/>
<polygon style="fill:#121149;" points="420.633,113.778 326.558,154.802 326.558,339.406 420.633,380.43 "/>
<ellipse style="fill:#A02D0A;" cx="256" cy="362.02" rx="71.111" ry="14.222"/>
<rect x="255.431" y="154.807" style="fill:#273B7A;" width="71.128" height="184.596"/>
<path style="fill:#940030;" d="M256,347.798c-0.193,0-0.383,0.002-0.574,0.003v28.439c0.191,0,0.381,0.003,0.574,0.003
	c39.274,0,71.111-6.368,71.111-14.222C327.111,354.168,295.274,347.798,256,347.798z"/>
<g>
</g>
<g>
</g>
<g>
</g>
<g>
</g>
<g>
</g>
<g>
</g>
<g>
</g>
<g>
</g>
<g>
</g>
<g>
</g>
<g>
</g>
<g>
</g>
<g>
</g>
<g>
</g>
<g>
</g>
</svg>
